<?xml version="1.0" encoding="UTF-8"?>
<!DOCTYPE svg PUBLIC "-//W3C//DTD SVG 1.1//EN" "http://www.w3.org/Graphics/SVG/1.1/DTD/svg11.dtd">
<!-- Creator: CorelDRAW 2017 -->
<svg xmlns="http://www.w3.org/2000/svg" xml:space="preserve" width="39.6874mm" height="44.4496mm" version="1.1" style="shape-rendering:geometricPrecision; text-rendering:geometricPrecision; image-rendering:optimizeQuality; fill-rule:evenodd; clip-rule:evenodd"
viewBox="0 0 3968.74 4444.96"
 xmlns:xlink="http://www.w3.org/1999/xlink">
 <defs>
  <style type="text/css">
   <![CDATA[
    .fil1 {fill:#FEFEFE}
    .fil2 {fill:url(#id0)}
    .fil0 {fill:url(#id1)}
   ]]>
  </style>
  <linearGradient id="id0" gradientUnits="userSpaceOnUse" x1="2509.01" y1="525.18" x2="1459.74" y2="3919.82">
   <stop offset="0" style="stop-opacity:1; stop-color:#EF7F1A"/>
   <stop offset="0.160784" style="stop-opacity:1; stop-color:#F08944"/>
   <stop offset="0.309804" style="stop-opacity:1; stop-color:#F2741F"/>
   <stop offset="1" style="stop-opacity:1; stop-color:#DB2511"/>
  </linearGradient>
  <radialGradient id="id1" gradientUnits="userSpaceOnUse" gradientTransform="matrix(2.22575 -0 -0 2.22575 -4190 -1056)" cx="3418.53" cy="861.24" r="3557.93" fx="3418.53" fy="861.24">
   <stop offset="0" style="stop-opacity:1; stop-color:#A3CCEE"/>
   <stop offset="0.341176" style="stop-opacity:1; stop-color:#69B2E3"/>
   <stop offset="0.670588" style="stop-opacity:1; stop-color:#4796C4"/>
   <stop offset="1" style="stop-opacity:1; stop-color:#0764AB"/>
  </radialGradient>
 </defs>
 <g id="Слой_x0020_1">
  <metadata id="CorelCorpID_0Corel-Layer"/>
  <g id="_1752549216144">
   <path class="fil0" d="M2228.31 833.46c505.03,0 946.98,269.6 1190.21,672.68 -101.84,217.66 -158.79,460.51 -158.79,716.64 0,256.12 56.96,498.88 158.79,716.54 -243.22,403.07 -685.2,672.85 -1190.21,672.85 -767.19,0 -1389.34,-622.16 -1389.34,-1389.37 0,-767.18 622.15,-1389.34 1389.34,-1389.34z"/>
   <path class="fil1" d="M3418.59 1506.19c-243.21,-403.12 -685.29,-672.73 -1190.3,-672.73 -767.17,0 -1389.32,622.14 -1389.32,1389.32 0,767.17 622.15,1389.31 1389.32,1389.31 505.03,0 947.04,-269.73 1190.26,-672.83 46.82,100.07 103.11,194.83 167.75,283.08 -16.74,22.84 -34.16,45.44 -52.21,67.63 -330.01,405.88 -809.33,618.82 -1294.57,624.29 -5.71,0.04 -11.43,0.08 -17.12,0.08 -5.73,0 -11.41,-0.02 -17.13,-0.08 -485.25,-5.46 -964.64,-218.43 -1294.66,-624.29 -589.5,-724.81 -479.84,-1790.68 245.13,-2380.23 203.39,-165.37 433.69,-275.71 672.73,-332.86 1.17,-0.28 2.29,-0.53 3.43,-0.8 11.28,-2.67 22.58,-5.2 33.89,-7.64 2.65,-0.56 5.27,-1.15 7.92,-1.71 9.65,-2.01 19.33,-3.94 29.03,-5.77 4.85,-0.93 9.73,-1.87 14.58,-2.75 7.73,-1.4 15.5,-2.77 23.26,-4.06 5.72,-0.96 11.49,-1.92 17.23,-2.82 7.59,-1.21 15.21,-2.33 22.81,-3.42 6.1,-0.89 12.22,-1.73 18.35,-2.57 7.11,-0.96 14.24,-1.82 21.38,-2.68 6.22,-0.73 12.44,-1.49 18.65,-2.16 6.96,-0.74 13.93,-1.42 20.87,-2.09 7.14,-0.68 14.29,-1.36 21.43,-1.95 6.13,-0.5 12.29,-0.95 18.43,-1.4 7.17,-0.53 14.37,-1.01 21.55,-1.44 6.03,-0.35 12.04,-0.66 18.06,-0.95 8.08,-0.4 16.18,-0.75 24.26,-1.04 5.13,-0.16 10.27,-0.3 15.4,-0.44 8.02,-0.2 16.06,-0.38 24.11,-0.48 5.96,-0.07 11.87,-0.07 17.81,-0.07 7.57,0 15.11,0 22.65,0.1 6.38,0.08 12.76,0.22 19.13,0.38 6.83,0.16 13.65,0.35 20.46,0.59 6.56,0.23 13.11,0.52 19.67,0.82 7.54,0.37 15.05,0.76 22.59,1.21 5.57,0.34 11.14,0.73 16.71,1.11 7.74,0.53 15.51,1.11 23.3,1.77 5.68,0.5 11.36,0.99 17.04,1.53 8.31,0.8 16.64,1.66 24.99,2.55 4.79,0.53 9.6,1.11 14.41,1.66 8.59,1.02 17.23,2.08 25.83,3.24 4.67,0.63 9.34,1.29 14,1.96 9.05,1.27 18.08,2.61 27.11,4.05 4.24,0.67 8.47,1.36 12.69,2.09 9.4,1.55 18.8,3.18 28.19,4.9 3.33,0.61 6.66,1.26 9.99,1.89 11.15,2.12 22.29,4.34 33.43,6.68 1.09,0.23 2.22,0.5 3.34,0.72 253.24,54.07 497.83,167.29 712.49,341.86 114.83,93.38 214.27,198.7 297.89,312.73 -64.84,88.44 -121.3,183.38 -168.24,283.71z"/>
   <path class="fil2" d="M3586.83 1222.48c-83.62,-114.03 -183.06,-219.35 -297.89,-312.73 -214.66,-174.57 -459.25,-287.79 -712.49,-341.86 -1.12,-0.22 -2.25,-0.49 -3.34,-0.72 -11.14,-2.34 -22.28,-4.56 -33.43,-6.68 -3.33,-0.63 -6.66,-1.28 -9.99,-1.89 -9.39,-1.72 -18.79,-3.35 -28.19,-4.9 -4.22,-0.73 -8.45,-1.42 -12.69,-2.09 -9.03,-1.44 -18.06,-2.78 -27.11,-4.05 -4.66,-0.67 -9.33,-1.33 -14,-1.96 -8.6,-1.16 -17.24,-2.22 -25.83,-3.24 -4.81,-0.55 -9.62,-1.13 -14.41,-1.66 -8.35,-0.89 -16.68,-1.75 -24.99,-2.55 -5.68,-0.54 -11.36,-1.03 -17.04,-1.53 -7.79,-0.66 -15.56,-1.24 -23.3,-1.77 -5.57,-0.38 -11.14,-0.77 -16.71,-1.11 -7.54,-0.45 -15.05,-0.84 -22.59,-1.21 -6.56,-0.3 -13.11,-0.59 -19.67,-0.82 -6.81,-0.24 -13.63,-0.43 -20.46,-0.59 -6.37,-0.16 -12.75,-0.3 -19.13,-0.38 -7.54,-0.1 -15.08,-0.1 -22.65,-0.1 -5.94,0 -11.85,0 -17.81,0.07 -8.05,0.1 -16.09,0.28 -24.11,0.48 -5.13,0.14 -10.27,0.28 -15.4,0.44 -8.08,0.29 -16.18,0.64 -24.26,1.04 -6.02,0.29 -12.03,0.6 -18.06,0.95 -7.18,0.43 -14.38,0.91 -21.55,1.44 -6.14,0.45 -12.3,0.9 -18.43,1.4 -7.14,0.59 -14.29,1.27 -21.43,1.95 -6.94,0.67 -13.91,1.35 -20.87,2.09 -6.21,0.67 -12.43,1.43 -18.65,2.16 -7.14,0.86 -14.27,1.72 -21.38,2.68 -6.13,0.84 -12.25,1.68 -18.35,2.57 -7.6,1.09 -15.22,2.21 -22.81,3.42 -5.74,0.9 -11.51,1.86 -17.23,2.82 -7.76,1.29 -15.53,2.66 -23.26,4.06 -4.85,0.88 -9.73,1.82 -14.58,2.75 -9.7,1.83 -19.38,3.76 -29.03,5.77 -2.65,0.56 -5.27,1.15 -7.92,1.71 -11.31,2.44 -22.61,4.97 -33.89,7.64 -1.14,0.27 -2.26,0.52 -3.43,0.8 -239.04,57.15 -469.34,167.49 -672.73,332.86 -724.97,589.55 -834.63,1655.42 -245.13,2380.23 330.02,405.86 809.41,618.83 1294.66,624.29 5.72,0.06 11.4,0.08 17.13,0.08 5.69,0 11.41,-0.04 17.12,-0.08 485.24,-5.47 964.56,-218.41 1294.57,-624.29 18.05,-22.19 35.47,-44.79 52.21,-67.63 105.87,144.52 234.01,271.62 379.5,376.24 -406.77,514.28 -1036.11,844.56 -1742.6,844.56 -1226.22,0 -2220.61,-994.39 -2220.61,-2220.66 0,-1226.27 994.39,-2220.66 2220.61,-2220.66 706.71,0 1336.22,330.35 1742.95,844.89 -145.39,104.48 -273.47,231.43 -379.32,375.77z"/>
   <path class="fil1" d="M2084.65 2399.61l0 311.04 576.48 0c62.19,0 94.58,-1.93 115.1,-7.91 104.95,-21.6 183.91,-113.78 183.91,-226.88 0,-113.09 -82.4,-209.23 -190.72,-228.15 107.84,-18.96 189.84,-108.99 189.84,-226.32 0,-117.32 -94.18,-220.83 -213.48,-229.21 -25.22,-2.7 -53.44,-4.08 -84.65,-4.08l-412.37 0 -164.11 0 -787.3 0 0 213.62 269.56 0 0 708.93 247.08 0 0 -708.93 270.66 0 0 397.89zm237.09 -61.03l0 0 329.31 0c87.41,0 89.45,157.27 0,157.27l-329.31 0 0 -157.27zm-1.09 -343.9l0 0 333.68 0c84.56,0 82.8,157.29 -3.03,157.29l-330.65 0 0 -157.29z"/>
  </g>
 </g>
</svg>
